<svg version="1.1" id="Layer_1" xmlns="http://www.w3.org/2000/svg" xmlns:xlink="http://www.w3.org/1999/xlink" x="0px" y="0px"
	 width="100%" viewBox="0 0 664 513" enable-background="new 0 0 664 513" xml:space="preserve">
<path fill="#FFFFFF" opacity="1.000000" stroke="none" 
	d="
M394.000000,514.000000 
	C262.666656,514.000000 131.833328,514.000000 1.000000,514.000000 
	C1.000000,343.000000 1.000000,172.000000 1.000000,1.000000 
	C222.333328,1.000000 443.666656,1.000000 665.000000,1.000000 
	C665.000000,172.000000 665.000000,343.000000 665.000000,514.000000 
	C574.833313,514.000000 484.666656,514.000000 394.000000,514.000000 
M500.109650,236.086700 
	C500.050018,231.725601 499.990417,227.364517 500.105133,222.080276 
	C500.047760,216.055832 499.990387,210.031387 500.108643,203.083801 
	C500.051636,197.390045 499.994629,191.696289 500.102051,185.077087 
	C500.114746,165.930634 500.035645,146.783539 500.168213,127.637917 
	C500.281311,111.306946 505.952606,104.033669 521.619568,99.642166 
	C524.016235,98.970367 526.438965,98.320992 528.892700,97.936157 
	C538.836243,96.376678 548.796631,94.924553 558.591675,93.456657 
	C558.591675,86.919121 558.591675,80.532845 558.591675,74.247475 
	C513.503906,74.247475 468.825500,74.247475 424.081604,74.247475 
	C424.185181,74.633064 424.177795,74.843102 424.265594,74.896408 
	C425.403076,75.587227 426.559387,76.246948 427.700958,76.931221 
	C454.281586,92.864227 473.033722,114.663986 479.480286,145.766800 
	C482.244537,159.103500 482.120087,172.528839 480.959778,186.823486 
	C480.044739,192.554474 479.129700,198.285477 477.963196,204.750610 
	C476.284912,210.498703 474.606659,216.246796 472.446930,222.506882 
	C470.272247,227.328079 468.097565,232.149261 465.392792,237.388321 
	C463.041718,241.264404 460.690643,245.140488 457.845276,249.507629 
	C454.786011,253.446396 451.726776,257.385162 448.096619,261.727875 
	C443.307587,265.695770 439.324738,270.029572 441.024231,277.921387 
	C441.024231,281.522552 441.024231,285.123688 441.024231,288.639038 
	C461.320526,290.867676 488.130035,290.257172 499.938568,287.337097 
	C499.938568,283.928741 499.938568,280.465912 500.119385,276.088348 
	C500.058105,271.726990 499.996796,267.365631 500.118011,262.089478 
	C500.056763,257.727051 499.995483,253.364639 500.111908,248.094925 
	C500.052582,244.397369 499.993256,240.699829 500.109650,236.086700 
M222.055405,224.682617 
	C236.537140,231.303207 251.018875,237.923798 266.124207,244.829468 
	C266.124207,236.810959 266.124207,229.904312 266.340546,222.085831 
	C266.265686,217.388840 266.190826,212.691849 266.333649,207.079269 
	C266.260956,201.050995 266.188263,195.022720 266.328583,188.077438 
	C266.256592,181.383286 266.184570,174.689148 266.318512,167.076599 
	C266.249237,160.383240 266.179993,153.689880 266.309479,146.077133 
	C266.247711,139.727341 266.185944,133.377548 266.463837,126.292030 
	C266.352905,120.517868 266.241974,114.743706 266.304321,108.063759 
	C266.304321,104.488121 266.304321,100.912491 266.304321,97.080162 
	C278.098877,97.080162 289.050812,97.255089 299.995148,97.042168 
	C320.112122,96.650810 339.349213,99.548737 356.853943,111.721306 
	C364.635223,118.017830 370.868713,125.615944 375.922211,134.999039 
	C378.169617,141.331070 380.416992,147.663086 382.697754,154.865265 
	C383.739960,161.929520 384.782135,168.993790 385.696625,176.976746 
	C385.512024,183.653061 385.327454,190.329391 384.937531,197.797134 
	C383.648468,204.199554 382.359436,210.601990 380.681885,217.612000 
	C377.656158,223.680649 374.630432,229.749298 371.079559,236.202026 
	C365.352203,242.060120 359.624878,247.918198 353.219055,253.972687 
	C345.047119,258.118835 336.875153,262.264954 328.767883,266.378296 
	C328.622742,266.188049 328.769073,266.597717 329.005951,266.659271 
	C345.864960,271.043610 362.723938,275.428772 379.612732,279.696014 
	C380.765198,279.987244 382.269745,279.652924 383.400696,279.143524 
	C395.840637,273.539795 407.306671,266.405060 418.001556,256.935211 
	C423.119568,251.154221 428.237549,245.373230 433.897736,239.149506 
	C437.601562,232.434448 441.305389,225.719391 445.517731,218.510605 
	C447.444550,212.148544 449.371399,205.786499 451.742065,198.752625 
	C452.524536,191.511398 453.307037,184.270187 454.439636,176.308212 
	C453.972931,169.205109 453.506226,162.102005 453.120178,154.164169 
	C450.984131,147.113403 448.848083,140.062637 446.579224,132.345093 
	C441.470306,125.049103 436.361389,117.753120 430.963867,109.886604 
	C424.503693,104.671059 418.452301,98.819450 411.508423,94.356461 
	C388.512207,79.576233 362.685394,74.281891 335.810913,74.143410 
	C276.320251,73.836853 216.827072,74.018112 157.334915,74.000473 
	C156.049561,74.000092 154.764206,74.000420 153.249039,74.000420 
	C153.249039,80.916336 153.249039,87.331970 153.249039,93.906654 
	C158.905273,94.630531 164.383881,95.076233 169.760620,96.071960 
	C181.633408,98.270706 194.015945,99.310616 203.144226,109.736015 
	C204.536896,115.165390 205.929550,120.594765 207.199600,126.949501 
	C207.289062,133.640640 207.378510,140.331772 207.268326,147.935410 
	C207.334442,154.624619 207.400558,161.313828 207.269836,168.920502 
	C207.336441,175.281448 207.403046,181.642380 207.272110,188.920959 
	C207.250702,193.066605 207.117065,197.215500 207.236221,201.357101 
	C207.385864,206.558212 207.742538,211.753387 208.341843,217.562210 
	C212.754013,219.751083 217.166183,221.939957 222.055405,224.682617 
M207.264420,311.955444 
	C207.332336,317.977722 207.400269,324.000031 207.267929,330.935577 
	C207.334396,337.297882 207.400864,343.660217 207.266815,350.935852 
	C207.333511,357.298309 207.400208,363.660767 207.265976,370.936920 
	C207.227631,385.590759 207.425690,400.250031 207.086899,414.896912 
	C206.721146,430.709381 198.878189,439.576996 183.311996,442.007294 
	C174.015564,443.458740 164.629715,444.337433 155.271271,445.475128 
	C155.271271,452.153381 155.271271,458.571503 155.271271,465.028076 
	C211.258224,465.028076 266.967285,465.028076 322.830200,465.028076 
	C322.830200,458.397705 322.830200,452.004364 322.830200,445.631409 
	C313.975006,444.719696 305.404114,443.891602 296.846252,442.945679 
	C273.670715,440.383942 266.451141,432.287384 266.422180,408.929535 
	C266.418884,406.265106 266.442352,403.600494 266.417725,400.936279 
	C266.325500,390.955383 266.218475,380.974670 266.379669,370.088867 
	C266.292969,363.723816 266.206238,357.358765 266.377686,350.087555 
	C266.290863,343.723083 266.204071,337.358582 266.370300,330.087708 
	C266.388733,324.364685 266.407166,318.641663 267.167267,312.965240 
	C267.969086,313.148560 268.779572,313.300598 269.571472,313.519714 
	C288.669830,318.805389 307.766174,324.098236 327.471832,329.795258 
	C341.021881,333.058746 354.503326,336.650208 368.139526,339.501648 
	C384.692413,342.963013 401.375885,345.799866 418.776733,349.172607 
	C426.199982,350.340881 433.623199,351.509186 441.009521,353.654633 
	C441.006226,373.654480 441.011322,393.654297 440.997009,413.654144 
	C440.985138,430.257812 433.315796,439.612396 416.938049,441.979279 
	C405.763336,443.594177 394.465454,444.356354 382.782776,445.544556 
	C382.782776,451.880859 382.782776,458.392395 382.782776,464.913513 
	C441.662415,464.913513 500.213593,464.913513 558.625977,464.913513 
	C558.625977,458.158447 558.625977,451.759552 558.625977,446.289825 
	C546.384338,443.865967 534.558105,442.031250 523.005066,439.114288 
	C506.956299,435.062286 500.188843,425.687775 500.158173,409.066864 
	C500.125610,391.400360 500.146454,373.733795 500.981232,355.927582 
	C503.659607,355.640289 506.337982,355.352997 509.932007,355.217224 
	C529.892761,354.360443 549.314453,350.975311 567.298218,341.856934 
	C586.138855,332.304169 597.987610,317.393280 601.199402,296.099152 
	C603.197205,282.853851 602.074463,269.825348 598.315125,257.105042 
	C595.404907,247.257797 591.670410,237.654129 588.302368,227.942184 
	C586.970642,228.702499 586.760620,229.039169 586.820557,229.317841 
	C587.379211,231.916473 588.061401,234.490311 588.563538,237.099091 
	C592.648865,258.322754 590.873657,277.978394 573.231079,293.254456 
	C563.968994,301.274231 552.989075,306.137695 541.260925,308.861755 
	C529.971924,311.483856 518.416016,312.957153 506.051361,314.792999 
	C493.790100,314.901703 481.498627,315.602570 469.274780,314.978516 
	C451.510559,314.071594 433.795166,312.209167 415.403931,310.336884 
	C403.114197,308.355499 390.762482,306.692596 378.549347,304.317413 
	C360.647797,300.835999 342.845459,296.844666 324.340332,292.703400 
	C316.647949,290.206055 308.882416,287.911774 301.277527,285.171661 
	C281.832703,278.165405 262.459473,270.960632 242.591507,263.318054 
	C237.229370,261.062866 231.765503,259.020538 226.523087,256.514862 
	C206.037460,246.723587 185.621887,236.785767 164.762268,226.354050 
	C139.388977,211.660309 115.232895,195.410538 95.944252,172.046432 
	C92.809029,167.162827 89.210388,162.511948 86.620354,157.354553 
	C76.444824,137.092606 76.969208,117.216087 90.551826,98.633995 
	C95.113297,92.393555 101.066139,87.170143 106.970123,81.224541 
	C107.237938,80.898666 107.505760,80.572800 107.773567,80.246918 
	C107.135147,80.443657 106.496719,80.640396 105.148369,80.923164 
	C88.182289,89.995705 72.313652,100.525269 60.080109,115.694664 
	C44.461018,135.062057 42.401844,157.131866 54.344570,178.922684 
	C64.937843,198.251251 80.508560,213.087463 98.306953,226.697189 
	C119.145470,242.597778 141.230804,256.501343 165.169891,268.698486 
	C179.214386,275.652985 193.258896,282.607452 207.219925,290.575928 
	C207.295013,297.397705 207.370117,304.219482 207.264420,311.955444 
z"/>
<path fill="#1C1564" opacity="1.000000" stroke="none" 
	d="
M500.143951,356.067261 
	C500.146454,373.733795 500.125610,391.400360 500.158173,409.066864 
	C500.188843,425.687775 506.956299,435.062286 523.005066,439.114288 
	C534.558105,442.031250 546.384338,443.865967 558.625977,446.289825 
	C558.625977,451.759552 558.625977,458.158447 558.625977,464.913513 
	C500.213593,464.913513 441.662415,464.913513 382.782776,464.913513 
	C382.782776,458.392395 382.782776,451.880859 382.782776,445.544556 
	C394.465454,444.356354 405.763336,443.594177 416.938049,441.979279 
	C433.315796,439.612396 440.985138,430.257812 440.997009,413.654144 
	C441.011322,393.654297 441.006226,373.654480 441.482574,353.149292 
	C461.351746,353.785065 480.747833,354.926178 500.143951,356.067261 
z"/>
<path fill="#1C1564" opacity="1.000000" stroke="none" 
	d="
M266.117004,370.993866 
	C266.218475,380.974670 266.325500,390.955383 266.417725,400.936279 
	C266.442352,403.600494 266.418884,406.265106 266.422180,408.929535 
	C266.451141,432.287384 273.670715,440.383942 296.846252,442.945679 
	C305.404114,443.891602 313.975006,444.719696 322.830200,445.631409 
	C322.830200,452.004364 322.830200,458.397705 322.830200,465.028076 
	C266.967285,465.028076 211.258224,465.028076 155.271271,465.028076 
	C155.271271,458.571503 155.271271,452.153381 155.271271,445.475128 
	C164.629715,444.337433 174.015564,443.458740 183.311996,442.007294 
	C198.878189,439.576996 206.721146,430.709381 207.086899,414.896912 
	C207.425690,400.250031 207.227631,385.590759 207.793640,370.476624 
	C227.586533,370.342163 246.851761,370.668030 266.117004,370.993866 
z"/>
<path fill="#2AA9DF" opacity="1.000000" stroke="none" 
	d="
M202.993805,109.003830 
	C194.015945,99.310616 181.633408,98.270706 169.760620,96.071960 
	C164.383881,95.076233 158.905273,94.630531 153.249039,93.906654 
	C153.249039,87.331970 153.249039,80.916336 153.249039,74.000420 
	C154.764206,74.000420 156.049561,74.000092 157.334915,74.000473 
	C216.827072,74.018112 276.320251,73.836853 335.810913,74.143410 
	C362.685394,74.281891 388.512207,79.576233 411.508423,94.356461 
	C418.452301,98.819450 424.503693,104.671059 430.855469,110.551956 
	C425.713837,111.146187 420.680511,111.011398 415.647339,111.015160 
	C395.915100,111.029892 376.182831,111.088333 356.450592,111.130531 
	C339.349213,99.548737 320.112122,96.650810 299.995148,97.042168 
	C289.050812,97.255089 278.098877,97.080162 266.304321,97.080162 
	C266.304321,100.912491 266.304321,104.488121 265.739380,108.525879 
	C256.884521,108.659271 248.597061,108.168343 240.304047,108.042061 
	C229.473953,107.877159 218.639145,107.959831 207.807220,108.045242 
	C206.200333,108.057907 204.598160,108.669388 202.993805,109.003830 
z"/>
<path fill="#2AA9E0" opacity="1.000000" stroke="none" 
	d="
M481.143646,186.004349 
	C482.120087,172.528839 482.244537,159.103500 479.480286,145.766800 
	C473.033722,114.663986 454.281586,92.864227 427.700958,76.931221 
	C426.559387,76.246948 425.403076,75.587227 424.265594,74.896408 
	C424.177795,74.843102 424.185181,74.633064 424.081604,74.247475 
	C468.825500,74.247475 513.503906,74.247475 558.591675,74.247475 
	C558.591675,80.532845 558.591675,86.919121 558.591675,93.456657 
	C548.796631,94.924553 538.836243,96.376678 528.892700,97.936157 
	C526.438965,98.320992 524.016235,98.970367 521.619568,99.642166 
	C505.952606,104.033669 500.281311,111.306946 500.168213,127.637917 
	C500.035645,146.783539 500.114746,165.930634 499.556152,185.538727 
	C493.054718,186.001694 487.099182,186.003021 481.143646,186.004349 
z"/>
<path fill="#F1590C" opacity="1.000000" stroke="none" 
	d="
M506.977417,314.935181 
	C518.416016,312.957153 529.971924,311.483856 541.260925,308.861755 
	C552.989075,306.137695 563.968994,301.274231 573.231079,293.254456 
	C590.873657,277.978394 592.648865,258.322754 588.563538,237.099091 
	C588.061401,234.490311 587.379211,231.916473 586.820557,229.317841 
	C586.760620,229.039169 586.970642,228.702499 588.302368,227.942184 
	C591.670410,237.654129 595.404907,247.257797 598.315125,257.105042 
	C602.074463,269.825348 603.197205,282.853851 601.199402,296.099152 
	C597.987610,317.393280 586.138855,332.304169 567.298218,341.856934 
	C549.314453,350.975311 529.892761,354.360443 509.469208,354.674377 
	C508.330078,341.066071 507.653748,328.000610 506.977417,314.935181 
z"/>
<path fill="#F07D19" opacity="1.000000" stroke="none" 
	d="
M97.957970,226.137238 
	C80.508560,213.087463 64.937843,198.251251 54.344570,178.922684 
	C42.401844,157.131866 44.461018,135.062057 60.080109,115.694664 
	C72.313652,100.525269 88.182289,89.995705 105.635681,81.040390 
	C106.122986,81.157608 106.383034,81.481880 106.383026,81.481873 
	C101.066139,87.170143 95.113297,92.393555 90.551826,98.633995 
	C76.969208,117.216087 76.444824,137.092606 86.620354,157.354553 
	C89.210388,162.511948 92.809029,167.162827 95.887131,172.738708 
	C95.599617,174.213760 95.132698,175.009125 95.173622,175.777451 
	C96.067734,192.565857 97.018257,209.351257 97.957970,226.137238 
z"/>
<path fill="#F15E0D" opacity="1.000000" stroke="none" 
	d="
M506.514404,314.864075 
	C507.653748,328.000610 508.330078,341.066071 509.011383,354.598572 
	C506.337982,355.352997 503.659607,355.640289 500.562592,355.997437 
	C480.747833,354.926178 461.351746,353.785065 441.501038,352.660736 
	C433.623199,351.509186 426.199982,350.340881 418.388855,348.577850 
	C417.353668,335.573456 416.706299,323.163849 416.058929,310.754211 
	C433.795166,312.209167 451.510559,314.071594 469.274780,314.978516 
	C481.498627,315.602570 493.790100,314.901703 506.514404,314.864075 
z"/>
<path fill="#F16610" opacity="1.000000" stroke="none" 
	d="
M415.731445,310.545532 
	C416.706299,323.163849 417.353668,335.573456 418.001953,348.445007 
	C401.375885,345.799866 384.692413,342.963013 368.139526,339.501648 
	C354.503326,336.650208 341.021881,333.058746 327.206238,329.111389 
	C326.294037,316.641876 325.647430,304.856232 325.000824,293.070587 
	C342.845459,296.844666 360.647797,300.835999 378.549347,304.317413 
	C390.762482,306.692596 403.114197,308.355499 415.731445,310.545532 
z"/>
<path fill="#F07315" opacity="1.000000" stroke="none" 
	d="
M165.180267,226.902435 
	C185.621887,236.785767 206.037460,246.723587 226.523087,256.514862 
	C231.765503,259.020538 237.229370,261.062866 242.807587,264.027740 
	C243.667191,273.107819 244.652847,281.471283 244.823380,289.851288 
	C244.922546,294.724701 243.714188,299.624695 242.807327,304.354919 
	C230.781464,299.318695 219.042419,294.440338 207.303391,289.561951 
	C193.258896,282.607452 179.214386,275.652985 165.275558,268.170227 
	C165.060440,259.350739 164.575912,251.061417 164.478043,242.767532 
	C164.415680,237.482666 164.926468,232.191040 165.180267,226.902435 
z"/>
<path fill="#F06D13" opacity="1.000000" stroke="none" 
	d="
M243.094177,304.512726 
	C243.714188,299.624695 244.922546,294.724701 244.823380,289.851288 
	C244.652847,281.471283 243.667191,273.107819 243.040619,264.286316 
	C262.459473,270.960632 281.832703,278.165405 301.277527,285.171661 
	C308.882416,287.911774 316.647949,290.206055 324.670593,292.886993 
	C325.647430,304.856232 326.294037,316.641876 326.901794,328.908630 
	C307.766174,324.098236 288.669830,318.805389 269.571472,313.519714 
	C268.779572,313.300598 267.969086,313.148560 266.490723,312.712128 
	C262.875427,311.633911 259.936676,310.808838 256.715576,309.772156 
	C251.986862,307.877930 247.540512,306.195343 243.094177,304.512726 
z"/>
<path fill="#F07817" opacity="1.000000" stroke="none" 
	d="
M164.971268,226.628235 
	C164.926468,232.191040 164.415680,237.482666 164.478043,242.767532 
	C164.575912,251.061417 165.060440,259.350739 165.049454,267.901031 
	C141.230804,256.501343 119.145470,242.597778 98.132462,226.417206 
	C97.018257,209.351257 96.067734,192.565857 95.173622,175.777451 
	C95.132698,175.009125 95.599617,174.213760 95.988449,173.055206 
	C115.232895,195.410538 139.388977,211.660309 164.971268,226.628235 
z"/>
<path fill="#299DD6" opacity="1.000000" stroke="none" 
	d="
M356.652283,111.425919 
	C376.182831,111.088333 395.915100,111.029892 415.647339,111.015160 
	C420.680511,111.011398 425.713837,111.146187 430.999756,110.837219 
	C436.361389,117.753120 441.470306,125.049103 446.196808,132.676178 
	C423.896576,132.692032 401.979065,132.334839 380.060120,132.159515 
	C378.655304,132.148285 377.239166,133.544052 375.828308,134.285278 
	C370.868713,125.615944 364.635223,118.017830 356.652283,111.425919 
z"/>
<path fill="#2892CD" opacity="1.000000" stroke="none" 
	d="
M375.875244,134.642166 
	C377.239166,133.544052 378.655304,132.148285 380.060120,132.159515 
	C401.979065,132.334839 423.896576,132.692032 446.263184,133.009583 
	C448.848083,140.062637 450.984131,147.113403 452.608276,154.581818 
	C428.952393,154.664673 405.808411,154.329895 382.664398,153.995117 
	C380.416992,147.663086 378.169617,141.331070 375.875244,134.642166 
z"/>
<path fill="#2787C4" opacity="1.000000" stroke="none" 
	d="
M382.681091,154.430191 
	C405.808411,154.329895 428.952393,154.664673 452.567963,154.999176 
	C453.506226,162.102005 453.972931,169.205109 453.789795,176.659576 
	C430.701416,176.693314 408.262848,176.375671 385.824310,176.058044 
	C384.782135,168.993790 383.739960,161.929520 382.681091,154.430191 
z"/>
<path fill="#257CBA" opacity="1.000000" stroke="none" 
	d="
M385.760468,176.517395 
	C408.262848,176.375671 430.701416,176.693314 453.614746,177.019958 
	C453.307037,184.270187 452.524536,191.511398 451.244202,198.738861 
	C446.019440,198.150085 441.297607,197.134125 436.564636,197.079163 
	C419.426056,196.880157 402.283783,197.003815 385.142883,197.005707 
	C385.327454,190.329391 385.512024,183.653061 385.760468,176.517395 
z"/>
<path fill="#245499" opacity="1.000000" stroke="none" 
	d="
M417.402222,257.163208 
	C407.306671,266.405060 395.840637,273.539795 383.400696,279.143524 
	C382.269745,279.652924 380.765198,279.987244 379.612732,279.696014 
	C362.723938,275.428772 345.864960,271.043610 329.005951,266.659271 
	C328.769073,266.597717 328.622742,266.188049 328.767883,266.378296 
	C336.875153,262.264954 345.047119,258.118835 353.832886,254.208130 
	C355.240845,254.626724 356.031616,254.952835 356.829712,254.971878 
	C372.081421,255.335968 387.335968,255.597000 402.585358,256.037842 
	C407.531036,256.180847 412.463623,256.775269 417.402222,257.163208 
z"/>
<path fill="#2571B1" opacity="1.000000" stroke="none" 
	d="
M385.040222,197.401428 
	C402.283783,197.003815 419.426056,196.880157 436.564636,197.079163 
	C441.297607,197.134125 446.019440,198.150085 451.022308,199.074768 
	C449.371399,205.786499 447.444550,212.148544 444.879456,218.590088 
	C443.115021,218.446655 441.992096,218.047852 440.862183,218.026962 
	C420.932098,217.658707 401.001160,217.336548 381.070404,217.004410 
	C382.359436,210.601990 383.648468,204.199554 385.040222,197.401428 
z"/>
<path fill="#2467A9" opacity="1.000000" stroke="none" 
	d="
M380.876160,217.308197 
	C401.001160,217.336548 420.932098,217.658707 440.862183,218.026962 
	C441.992096,218.047852 443.115021,218.446655 444.625244,218.836960 
	C441.305389,225.719391 437.601562,232.434448 433.367859,238.996948 
	C428.134888,238.229614 423.439667,237.167603 418.727234,237.084671 
	C405.109589,236.845078 391.484680,237.049606 377.863586,236.946762 
	C375.774567,236.930984 373.690857,236.211807 371.604675,235.817947 
	C374.630432,229.749298 377.656158,223.680649 380.876160,217.308197 
z"/>
<path fill="#2689C6" opacity="1.000000" stroke="none" 
	d="
M266.110718,146.996521 
	C266.179993,153.689880 266.249237,160.383240 265.738159,167.537445 
	C245.927444,167.999863 226.697067,168.001450 207.466675,168.003036 
	C207.400558,161.313828 207.334442,154.624619 207.804337,147.473129 
	C227.597137,147.006073 246.853928,147.001297 266.110718,146.996521 
z"/>
<path fill="#235DA1" opacity="1.000000" stroke="none" 
	d="
M371.342102,236.009979 
	C373.690857,236.211807 375.774567,236.930984 377.863586,236.946762 
	C391.484680,237.049606 405.109589,236.845078 418.727234,237.084671 
	C423.439667,237.167603 428.134888,238.229614 433.096741,239.218323 
	C428.237549,245.373230 423.119568,251.154221 417.701904,257.049194 
	C412.463623,256.775269 407.531036,256.180847 402.585358,256.037842 
	C387.335968,255.597000 372.081421,255.335968 356.829712,254.971878 
	C356.031616,254.952835 355.240845,254.626724 354.172119,254.109924 
	C359.624878,247.918198 365.352203,242.060120 371.342102,236.009979 
z"/>
<path fill="#1C206E" opacity="1.000000" stroke="none" 
	d="
M266.248352,370.541382 
	C246.851761,370.668030 227.586533,370.342163 207.894104,370.019775 
	C207.400208,363.660767 207.333511,357.298309 207.805206,350.475098 
	C227.602249,350.340820 246.860886,350.667267 266.119537,350.993713 
	C266.206238,357.358765 266.292969,363.723816 266.248352,370.541382 
z"/>
<path fill="#257FBD" opacity="1.000000" stroke="none" 
	d="
M207.368256,168.461761 
	C226.697067,168.001450 245.927444,167.999863 265.635193,167.996643 
	C266.184570,174.689148 266.256592,181.383286 265.747498,188.537689 
	C245.934158,188.666412 226.701904,188.334869 207.469635,188.003326 
	C207.403046,181.642380 207.336441,175.281448 207.368256,168.461761 
z"/>
<path fill="#2892CD" opacity="1.000000" stroke="none" 
	d="
M266.210083,146.536835 
	C246.853928,147.001297 227.597137,147.006073 207.904144,147.016876 
	C207.378510,140.331772 207.289062,133.640640 207.699265,126.481636 
	C227.507355,126.351768 246.815781,126.689766 266.124207,127.027756 
	C266.185944,133.377548 266.247711,139.727341 266.210083,146.536835 
z"/>
<path fill="#1D2A77" opacity="1.000000" stroke="none" 
	d="
M266.248596,350.540649 
	C246.860886,350.667267 227.602249,350.340820 207.905457,350.018433 
	C207.400864,343.660217 207.334396,337.297882 207.805939,330.474731 
	C227.601715,330.340637 246.859482,330.667358 266.117249,330.994110 
	C266.204071,337.358582 266.290863,343.723083 266.248596,350.540649 
z"/>
<path fill="#1E347F" opacity="1.000000" stroke="none" 
	d="
M266.243774,330.540894 
	C246.859482,330.667358 227.601715,330.340637 207.906067,330.018097 
	C207.400269,324.000031 207.332336,317.977722 207.794067,311.489319 
	C222.507812,311.343140 236.691055,311.747955 250.876923,311.888000 
	C252.910782,311.908112 254.957275,310.650177 256.997925,309.983734 
	C259.936676,310.808838 262.875427,311.633911 266.119873,312.688843 
	C266.407166,318.641663 266.388733,324.364685 266.243774,330.540894 
z"/>
<path fill="#2474B4" opacity="1.000000" stroke="none" 
	d="
M207.370880,188.462143 
	C226.701904,188.334869 245.934158,188.666412 265.640991,188.996185 
	C266.188263,195.022720 266.260956,201.050995 265.747437,207.538681 
	C249.425491,207.665390 233.690903,207.257965 217.953705,207.027176 
	C208.023911,206.881546 208.022171,207.000000 208.009872,216.951126 
	C207.742538,211.753387 207.385864,206.558212 207.236221,201.357101 
	C207.117065,197.215500 207.250702,193.066605 207.370880,188.462143 
z"/>
<path fill="#2D9FD7" opacity="1.000000" stroke="none" 
	d="
M266.294006,126.659897 
	C246.815781,126.689766 227.507355,126.351768 207.760559,126.018951 
	C205.929550,120.594765 204.536896,115.165390 203.069016,109.369926 
	C204.598160,108.669388 206.200333,108.057907 207.807220,108.045242 
	C218.639145,107.959831 229.473953,107.877159 240.304047,108.042061 
	C248.597061,108.168343 256.884521,108.659271 265.652710,108.978775 
	C266.241974,114.743706 266.352905,120.517868 266.294006,126.659897 
z"/>
<path fill="#246BAC" opacity="1.000000" stroke="none" 
	d="
M208.175858,217.256668 
	C208.022171,207.000000 208.023911,206.881546 217.953705,207.027176 
	C233.690903,207.257965 249.425491,207.665390 265.638611,207.996475 
	C266.190826,212.691849 266.265686,217.388840 265.754456,222.542328 
	C250.638336,223.375504 236.108353,223.752182 221.578354,224.128845 
	C217.166183,221.939957 212.754013,219.751083 208.175858,217.256668 
z"/>
<path fill="#235DA1" opacity="1.000000" stroke="none" 
	d="
M441.162537,277.005249 
	C439.324738,270.029572 443.307587,265.695770 448.630341,261.921814 
	C450.902954,262.410339 452.640686,262.952728 454.380890,262.960602 
	C469.565521,263.029480 484.750580,263.002655 499.935516,263.004272 
	C499.996796,267.365631 500.058105,271.726990 499.564453,276.544617 
	C479.727203,277.002350 460.444855,277.003815 441.162537,277.005249 
z"/>
<path fill="#245499" opacity="1.000000" stroke="none" 
	d="
M441.093384,277.463318 
	C460.444855,277.003815 479.727203,277.002350 499.474060,277.001953 
	C499.938568,280.465912 499.938568,283.928741 499.938568,287.337097 
	C488.130035,290.257172 461.320526,290.867676 441.024231,288.639038 
	C441.024231,285.123688 441.024231,281.522552 441.093384,277.463318 
z"/>
<path fill="#246BAC" opacity="1.000000" stroke="none" 
	d="
M500.026764,262.546875 
	C484.750580,263.002655 469.565521,263.029480 454.380890,262.960602 
	C452.640686,262.952728 450.902954,262.410339 448.915771,261.719849 
	C451.726776,257.385162 454.786011,253.446396 458.537476,249.258514 
	C472.797852,249.007019 486.366028,249.004623 499.934204,249.002228 
	C499.995483,253.364639 500.056763,257.727051 500.026764,262.546875 
z"/>
<path fill="#2C4589" opacity="1.000000" stroke="none" 
	d="
M256.715576,309.772156 
	C254.957275,310.650177 252.910782,311.908112 250.876923,311.888000 
	C236.691055,311.747955 222.507812,311.343140 207.884476,311.032227 
	C207.370117,304.219482 207.295013,297.397705 207.261658,290.068939 
	C219.042419,294.440338 230.781464,299.318695 242.807343,304.354919 
	C247.540512,306.195343 251.986862,307.877930 256.715576,309.772156 
z"/>
<path fill="#2467A9" opacity="1.000000" stroke="none" 
	d="
M221.816879,224.405731 
	C236.108353,223.752182 250.638336,223.375504 265.646271,222.998245 
	C266.124207,229.904312 266.124207,236.810959 266.124207,244.829468 
	C251.018875,237.923798 236.537140,231.303207 221.816879,224.405731 
z"/>
<path fill="#2689C6" opacity="1.000000" stroke="none" 
	d="
M499.933014,204.006943 
	C499.990387,210.031387 500.047760,216.055832 499.554871,222.540787 
	C490.312561,222.665833 481.620483,222.330353 472.928406,221.994888 
	C474.606659,216.246796 476.284912,210.498703 478.542816,204.379913 
	C486.059296,204.008453 492.996155,204.007690 499.933014,204.006943 
z"/>
<path fill="#2474B4" opacity="1.000000" stroke="none" 
	d="
M500.023071,248.548584 
	C486.366028,249.004623 472.797852,249.007019 458.784607,249.013000 
	C460.690643,245.140488 463.041718,241.264404 466.131653,237.188156 
	C477.891632,236.992752 488.912750,236.997513 499.933899,237.002258 
	C499.993256,240.699829 500.052582,244.397369 500.023071,248.548584 
z"/>
<path fill="#257FBD" opacity="1.000000" stroke="none" 
	d="
M500.021790,236.544479 
	C488.912750,236.997513 477.891632,236.992752 466.396667,236.979218 
	C468.097565,232.149261 470.272247,227.328079 472.687683,222.250885 
	C481.620483,222.330353 490.312561,222.665833 499.467712,223.002350 
	C499.990417,227.364517 500.050018,231.725601 500.021790,236.544479 
z"/>
<path fill="#299DD6" opacity="1.000000" stroke="none" 
	d="
M500.020813,203.545380 
	C492.996155,204.007690 486.059296,204.008453 478.668518,204.012848 
	C479.129700,198.285477 480.044739,192.554474 481.051697,186.413910 
	C487.099182,186.003021 493.054718,186.001694 499.473938,186.001434 
	C499.994629,191.696289 500.051636,197.390045 500.020813,203.545380 
z"/>
<path fill="#F07D19" opacity="1.000000" stroke="none" 
	d="
M105.990646,80.997368 
	C106.496719,80.640396 107.135147,80.443657 107.773575,80.246918 
	C107.505760,80.572800 107.237938,80.898666 106.676575,81.353210 
	C106.383034,81.481880 106.122986,81.157608 105.990646,80.997368 
z"/>
</svg>