<svg width="251" height="94" viewBox="0 0 251 94" fill="none" xmlns="http://www.w3.org/2000/svg">
<g clip-path="url(#clip0_3002_350)">
<rect width="251" height="94" transform="matrix(1 0 0 -1 0 94)" fill="black"/>
<path d="M18.936 14.8H34.488C39.736 14.8 43.672 16.208 46.296 19.024C48.92 21.84 50.232 25.968 50.232 31.408V38.032C50.232 43.472 48.92 47.6 46.296 50.416C43.672 53.232 39.736 54.64 34.488 54.64H29.496V82H18.936V14.8ZM34.488 45.04C36.216 45.04 37.496 44.56 38.328 43.6C39.224 42.64 39.672 41.008 39.672 38.704V30.736C39.672 28.432 39.224 26.8 38.328 25.84C37.496 24.88 36.216 24.4 34.488 24.4H29.496V45.04H34.488ZM60.7672 14.8H71.3273V82H60.7672V14.8ZM97.764 82.96C92.644 82.96 88.772 81.52 86.148 78.64C83.524 75.696 82.212 71.504 82.212 66.064V62.224H92.196V66.832C92.196 71.184 94.02 73.36 97.668 73.36C99.46 73.36 100.804 72.848 101.7 71.824C102.66 70.736 103.14 69.008 103.14 66.64C103.14 63.824 102.5 61.36 101.22 59.248C99.94 57.072 97.572 54.48 94.116 51.472C89.764 47.632 86.724 44.176 84.996 41.104C83.268 37.968 82.404 34.448 82.404 30.544C82.404 25.232 83.748 21.136 86.436 18.256C89.124 15.312 93.028 13.84 98.148 13.84C103.204 13.84 107.012 15.312 109.572 18.256C112.196 21.136 113.508 25.296 113.508 30.736V33.52H103.524V30.064C103.524 27.76 103.076 26.096 102.18 25.072C101.284 23.984 99.972 23.44 98.244 23.44C94.724 23.44 92.964 25.584 92.964 29.872C92.964 32.304 93.604 34.576 94.884 36.688C96.228 38.8 98.628 41.36 102.084 44.368C106.5 48.208 109.54 51.696 111.204 54.832C112.868 57.968 113.7 61.648 113.7 65.872C113.7 71.376 112.324 75.6 109.572 78.544C106.884 81.488 102.948 82.96 97.764 82.96ZM139.819 82.96C134.635 82.96 130.667 81.488 127.915 78.544C125.163 75.6 123.787 71.44 123.787 66.064V30.736C123.787 25.36 125.163 21.2 127.915 18.256C130.667 15.312 134.635 13.84 139.819 13.84C145.003 13.84 148.971 15.312 151.723 18.256C154.475 21.2 155.851 25.36 155.851 30.736V66.064C155.851 71.44 154.475 75.6 151.723 78.544C148.971 81.488 145.003 82.96 139.819 82.96ZM139.819 73.36C143.467 73.36 145.291 71.152 145.291 66.736V30.064C145.291 25.648 143.467 23.44 139.819 23.44C136.171 23.44 134.347 25.648 134.347 30.064V66.736C134.347 71.152 136.171 73.36 139.819 73.36ZM167.792 14.8H195.728V24.4H178.352V43.12H191.984V52.72H178.352V82H167.792V14.8ZM214.786 24.4H203.746V14.8H236.386V24.4H225.346V82H214.786V24.4Z" fill="white"/>
</g>
<defs>
<clipPath id="clip0_3002_350">
<rect width="251" height="94" fill="white" transform="matrix(1 0 0 -1 0 94)"/>
</clipPath>
</defs>
</svg>
