<svg width="300" height="100" viewBox="0 0 300 100" fill="none" xmlns="http://www.w3.org/2000/svg">
<path d="M148.048 40.6485C144.523 40.6485 141.05 42.1615 138.398 45.1362V30.4668H133.15V55.1655C133.15 63.183 139.649 69.6824 147.667 69.6824C155.684 69.6824 162.183 63.183 162.183 55.1655C162.183 47.1481 156.065 40.6485 148.048 40.6485ZM147.667 64.091C142.737 64.091 138.741 60.0948 138.741 55.1654C138.741 50.2359 142.737 46.2397 147.667 46.2397C152.596 46.2397 156.592 50.2359 156.592 55.1654C156.592 60.0949 152.596 64.091 147.667 64.091Z" fill="#262626"/>
<path d="M180.562 40.6485C177.038 40.6485 173.564 42.1615 170.912 45.1362V30.4668H165.664V55.1637L165.664 55.1655C165.664 63.183 172.164 69.6824 180.181 69.6824C188.199 69.6824 194.698 63.183 194.698 55.1655C194.698 47.1481 188.579 40.6485 180.562 40.6485ZM180.181 64.091C175.252 64.091 171.255 60.0948 171.255 55.1654C171.255 50.2359 175.252 46.2397 180.181 46.2397C185.111 46.2397 189.107 50.2359 189.107 55.1654C189.107 60.0949 185.111 64.091 180.181 64.091Z" fill="#262626"/>
<path d="M103.62 57.7083V41.436H109.249V57.6573C109.249 61.8022 111.654 64.463 115.697 64.463C119.79 64.463 122.144 61.9044 122.144 57.6573V41.436H127.824V57.7083C127.824 65.2305 123.27 69.6825 115.697 69.6825C108.328 69.6825 103.62 65.0771 103.62 57.7083Z" fill="#262626"/>
<path d="M204.855 30.4668H199.226V69.0171H204.855V30.4668Z" fill="#262626"/>
<path d="M236.719 57.4015H215.175C215.994 61.6998 219.013 64.6166 224.335 64.6166C227.457 64.6166 231.243 63.4396 233.699 61.6487L236.053 65.7934C233.239 67.8916 228.787 69.6313 224.13 69.6313C213.794 69.6313 209.342 62.4162 209.342 55.1499C209.342 51.005 210.621 47.5765 213.231 44.8643C215.841 42.1522 219.269 40.7707 223.414 40.7707C227.354 40.7707 230.629 41.9988 233.137 44.5061C235.644 47.0135 236.923 50.3908 236.923 54.6891C236.923 55.457 236.872 56.3779 236.719 57.4015ZM215.175 52.7959H231.243C230.783 48.4464 227.559 45.632 223.414 45.632C219.167 45.632 215.994 48.4975 215.175 52.7959Z" fill="#262626"/>
<path d="M85.7486 40.6485C82.2243 40.6485 78.7506 42.1615 76.0987 45.1362V30.4668H70.8507V55.1655C70.8507 63.183 77.3501 69.6824 85.3677 69.6824C93.3851 69.6824 99.8846 63.183 99.8846 55.1655C99.8846 47.1481 93.766 40.6485 85.7486 40.6485ZM85.3677 64.091C80.4382 64.091 76.442 60.0948 76.442 55.1654C76.442 50.2359 80.4382 46.2397 85.3677 46.2397C90.2971 46.2397 94.2933 50.2359 94.2933 55.1654C94.2933 60.0949 90.2971 64.091 85.3677 64.091Z" fill="#262626"/>
<path d="M67.0351 62.5027C65.0525 62.5027 63.4453 64.11 63.4453 66.0925C63.4453 68.0751 65.0525 69.6823 67.0351 69.6823C69.0178 69.6823 70.6249 68.0751 70.6249 66.0925C70.6249 64.11 69.0178 62.5027 67.0351 62.5027Z" fill="#0000FF"/>
</svg>
