<svg width="380" height="100" viewBox="0 0 380 100" fill="none" xmlns="http://www.w3.org/2000/svg">
<path fill-rule="evenodd" clip-rule="evenodd" d="M29.8209 51.4706L49.1824 31.872C50.4979 30.5404 52.2482 29.8082 54.1138 29.8082C55.9781 29.8082 57.7284 30.5397 59.0425 31.8713L60.551 33.3982L63.5686 30.3436L62.0601 28.8167C59.941 26.6716 57.1191 25.4902 54.1125 25.4902C51.1072 25.4909 48.2846 26.6723 46.1655 28.8181L26.8039 48.416L29.8209 51.4706Z" fill="#000008"/>
<path fill-rule="evenodd" clip-rule="evenodd" d="M55.7255 38.382L52.6936 35.3319L33.2411 54.9015C30.5094 57.6496 26.0647 57.6503 23.3337 54.9029C20.602 52.1549 20.602 47.6828 23.3337 44.9348L40.1193 28.0494L37.0874 25L20.3025 41.8854C15.8992 46.3151 15.8992 53.5233 20.3025 57.9523C22.4316 60.0942 25.2669 61.2745 28.2864 61.2745C31.3065 61.2745 34.1431 60.0935 36.2723 57.9516L55.7255 38.382Z" fill="#000008"/>
<path fill-rule="evenodd" clip-rule="evenodd" d="M74.9715 42.0471C72.843 39.9051 70.0078 38.7255 66.9869 38.7255C63.9667 38.7262 61.13 39.9058 59.0009 42.0485L39.549 61.6178L42.5796 64.6679L62.0328 45.0979C64.7652 42.3498 69.2092 42.3505 71.9402 45.0972C73.2612 46.4261 73.9887 48.1953 73.9887 50.0803C73.9887 51.9661 73.2612 53.7359 71.9402 55.0648L55.1552 71.9506L58.1871 75L74.9715 58.1149C79.3755 53.6852 79.3755 46.4768 74.9715 42.0471Z" fill="#000008"/>
<path fill-rule="evenodd" clip-rule="evenodd" d="M65.4537 48.5294L46.0925 68.128C43.373 70.8795 38.95 70.8809 36.2319 68.1287L34.7235 66.6018L31.7059 69.6564L33.2143 71.1833C35.3334 73.3284 38.1553 74.5098 41.1625 74.5098C44.1678 74.5091 46.9896 73.3277 49.1094 71.1819L68.4706 51.584L65.4537 48.5294Z" fill="#000008"/>
<path fill-rule="evenodd" clip-rule="evenodd" d="M96.1544 55.1032C96.4042 56.3537 96.9894 57.3328 97.9088 58.0382C98.8276 58.745 100.036 59.0977 101.536 59.0977C103.011 59.0977 104.151 58.7506 104.957 58.0557C105.764 57.3615 106.166 56.4468 106.166 55.3117C106.166 54.7561 106.059 54.2872 105.843 53.9051C105.627 53.523 105.326 53.199 104.941 52.9324C104.554 52.6672 104.078 52.4404 103.51 52.2557C102.943 52.0702 102.307 51.8736 101.603 51.665L99.7648 51.1444C98.6746 50.8435 97.6982 50.4789 96.8357 50.0499C95.9726 49.6216 95.235 49.1177 94.6223 48.539C94.0096 47.9602 93.5438 47.2947 93.2261 46.5417C92.9084 45.7894 92.7492 44.9147 92.7492 43.9195C92.7492 42.8775 92.9537 41.9167 93.3626 41.0363C93.7709 40.1574 94.3499 39.4037 95.0992 38.7788C95.8484 38.1538 96.7562 37.6619 97.8238 37.3022C98.89 36.9446 100.093 36.7647 101.433 36.7647C103.953 36.7647 105.95 37.3721 107.427 38.5877C108.902 39.804 109.764 41.4303 110.015 43.4682L105.928 43.8153C105.678 42.7733 105.179 41.9629 104.43 41.3841C103.68 40.8054 102.636 40.5157 101.297 40.5157C100.048 40.5157 99.0718 40.811 98.3685 41.4016C97.6639 41.9923 97.3119 42.7509 97.3119 43.6767C97.3119 44.2093 97.4148 44.6543 97.6193 45.0133C97.8238 45.3731 98.1181 45.6852 98.5044 45.9511C98.89 46.2177 99.3614 46.455 99.9171 46.6628C100.474 46.8713 101.103 47.0925 101.807 47.3234L103.545 47.8791C104.633 48.2262 105.616 48.5908 106.489 48.9729C107.364 49.355 108.107 49.8126 108.72 50.3452C109.333 50.8777 109.805 51.5146 110.133 52.2557C110.463 52.9968 110.627 53.9114 110.627 54.9996C110.627 56.1578 110.4 57.2173 109.947 58.1774C109.492 59.139 108.857 59.955 108.039 60.6261C107.222 61.2979 106.252 61.8193 105.127 62.1888C104.004 62.5589 102.761 62.7451 101.399 62.7451C98.879 62.7451 96.7788 62.1433 95.0992 60.9389C93.4189 59.7345 92.3863 57.9171 92 55.4853L96.1544 55.1032Z" fill="#000008"/>
<path fill-rule="evenodd" clip-rule="evenodd" d="M128.206 40.9886C126.981 40.9886 125.886 41.2192 124.922 41.6789C123.957 42.1393 123.14 42.7774 122.471 43.5938C121.801 44.4109 121.29 45.3778 120.938 46.4923C120.587 47.6089 120.411 48.8224 120.411 50.1333C120.411 51.445 120.592 52.664 120.956 53.7918C121.318 54.9189 121.835 55.8962 122.505 56.7251C123.173 57.5527 123.991 58.2026 124.956 58.6749C125.92 59.1457 127.015 59.3812 128.241 59.3812C129.466 59.3812 130.561 59.1576 131.526 58.709C132.49 58.2604 133.307 57.6335 133.977 56.8275C134.646 56.023 135.162 55.0505 135.525 53.9123C135.888 52.7734 136.07 51.5251 136.07 50.1682C136.07 48.8335 135.888 47.6027 135.525 46.4756C135.162 45.3492 134.646 44.3823 133.977 43.5771C133.307 42.7725 132.484 42.1393 131.508 41.6789C130.533 41.2192 129.432 40.9886 128.206 40.9886ZM128.241 37.2549C130.079 37.2549 131.758 37.5718 133.279 38.2057C134.799 38.8396 136.092 39.7264 137.16 40.8674C138.226 42.0091 139.053 43.3744 139.645 44.9647C140.234 46.555 140.529 48.2951 140.529 50.1849C140.529 52.1451 140.217 53.9137 139.594 55.4922C138.968 57.0713 138.079 58.4366 136.921 59.5888L140.189 63.4959V64.7059H136.036L133.755 61.8715C132.961 62.24 132.109 62.5277 131.202 62.7352C130.294 62.9428 129.318 63.0466 128.275 63.0466C126.391 63.0466 124.695 62.729 123.186 62.0958C121.676 61.4619 120.393 60.5744 119.339 59.4334C118.283 58.2924 117.466 56.9334 116.888 55.3535C116.309 53.7751 116.02 52.0524 116.02 50.1849C116.02 48.2951 116.309 46.5613 116.888 44.9814C117.466 43.4036 118.288 42.0432 119.356 40.9022C120.422 39.7612 121.71 38.8682 123.219 38.2225C124.729 37.5781 126.402 37.2549 128.241 37.2549Z" fill="#000008"/>
<path fill-rule="evenodd" clip-rule="evenodd" d="M157.196 59.1681C158.938 59.1681 160.294 58.6188 161.267 57.5189C162.239 56.4189 162.725 54.7347 162.725 52.4655V37.2549H167V52.5697C167 54.3757 166.774 55.9207 166.321 57.2061C165.868 58.4908 165.224 59.5446 164.388 60.3667C163.551 61.1889 162.522 61.7907 161.301 62.1727C160.08 62.5548 158.711 62.7451 157.196 62.7451C155.657 62.7451 154.284 62.5548 153.075 62.1727C151.864 61.7907 150.841 61.1889 150.004 60.3667C149.168 59.5446 148.523 58.4908 148.07 57.2061C147.618 55.9207 147.392 54.3757 147.392 52.5697V37.2549H151.667V52.4655C151.667 54.7347 152.153 56.4189 153.125 57.5189C154.098 58.6188 155.454 59.1681 157.196 59.1681Z" fill="#000008"/>
<path fill-rule="evenodd" clip-rule="evenodd" d="M179.246 51.5702H187.425L186.079 47.6787C185.549 46.1546 185.124 44.9139 184.802 43.9585C184.48 43.0025 184.192 42.1607 183.939 41.4323H182.87C182.732 41.8188 182.593 42.2061 182.456 42.5926C182.317 42.9798 182.162 43.4124 181.99 43.8897C181.817 44.3678 181.628 44.9139 181.42 45.5287C181.213 46.1422 180.96 46.8596 180.661 47.6787L179.246 51.5702ZM171.412 61.0602L180.213 37.7451H186.735L195.431 61.0602V62.2549H191.152L188.668 55.2567H177.935L175.45 62.2549H171.412V61.0602Z" fill="#000008"/>
<path fill-rule="evenodd" clip-rule="evenodd" d="M205.061 48.9418H208.787C210.428 48.9418 211.721 48.6426 212.666 48.0456C213.612 47.4479 214.086 46.4726 214.086 45.1183C214.086 43.7427 213.606 42.7846 212.649 42.2433C211.693 41.7027 210.405 41.4317 208.787 41.4317H205.061V48.9418ZM219.451 62.2549H215.315L207.83 52.6284H205.061V62.2549H200.823V37.7451H208.787C210.04 37.7451 211.231 37.8304 212.358 38.001C213.486 38.1715 214.506 38.5643 215.418 39.1785C217.354 40.4523 218.324 42.3754 218.324 44.9457C218.324 46.0613 218.158 47.0339 217.827 47.8647C217.497 48.6949 217.058 49.3999 216.512 49.9804C215.964 50.5609 215.332 51.0327 214.615 51.3959C213.897 51.7604 213.15 52.0335 212.376 52.2151L219.451 61.0595V62.2549Z" fill="#000008"/>
<path fill-rule="evenodd" clip-rule="evenodd" d="M224.843 37.7451H240.779V41.4997H229.059V47.9174H239.957V51.6039H229.059V58.4996H241.02V62.2549H224.843V37.7451Z" fill="#000008"/>
<path fill-rule="evenodd" clip-rule="evenodd" d="M250.567 55.1032C250.816 56.3537 251.401 57.3328 252.32 58.0382C253.24 58.745 254.449 59.0977 255.947 59.0977C257.422 59.0977 258.562 58.7506 259.369 58.0557C260.175 57.3615 260.578 56.4468 260.578 55.3117C260.578 54.7561 260.47 54.2872 260.254 53.9051C260.039 53.523 259.738 53.199 259.352 52.9324C258.966 52.6672 258.489 52.4404 257.922 52.2557C257.354 52.0702 256.718 51.8736 256.014 51.665L254.176 51.1444C253.087 50.8435 252.11 50.4789 251.247 50.0499C250.384 49.6216 249.647 49.1177 249.035 48.539C248.421 47.9602 247.955 47.2947 247.638 46.5417C247.32 45.7894 247.161 44.9147 247.161 43.9195C247.161 42.8775 247.365 41.9167 247.774 41.0363C248.182 40.1574 248.762 39.4037 249.511 38.7788C250.26 38.1538 251.168 37.6619 252.235 37.3022C253.301 36.9446 254.505 36.7647 255.844 36.7647C258.364 36.7647 260.361 37.3721 261.838 38.5877C263.313 39.804 264.176 41.4303 264.426 43.4682L260.339 43.8153C260.09 42.7733 259.59 41.9629 258.842 41.3841C258.092 40.8054 257.047 40.5157 255.708 40.5157C254.46 40.5157 253.483 40.811 252.78 41.4016C252.076 41.9923 251.724 42.7509 251.724 43.6767C251.724 44.2093 251.826 44.6543 252.031 45.0133C252.235 45.3731 252.53 45.6852 252.916 45.9511C253.301 46.2177 253.773 46.455 254.329 46.6628C254.886 46.8713 255.515 47.0925 256.219 47.3234L257.956 47.8791C259.045 48.2262 260.027 48.5908 260.901 48.9729C261.775 49.355 262.519 49.8126 263.131 50.3452C263.744 50.8777 264.216 51.5146 264.545 52.2557C264.874 52.9968 265.039 53.9114 265.039 54.9996C265.039 56.1578 264.812 57.2173 264.358 58.1774C263.903 59.139 263.268 59.955 262.45 60.6261C261.633 61.2979 260.663 61.8193 259.539 62.1888C258.415 62.5589 257.172 62.7451 255.81 62.7451C253.291 62.7451 251.19 62.1433 249.511 60.9389C247.831 59.7345 246.798 57.9171 246.412 55.4853L250.567 55.1032Z" fill="#000008"/>
<path fill-rule="evenodd" clip-rule="evenodd" d="M275.755 49.1465H279.924C280.689 49.1465 281.39 49.0846 282.027 48.9601C282.663 48.8363 283.22 48.6279 283.694 48.3342C284.17 48.0412 284.54 47.6464 284.807 47.1498C285.073 46.6539 285.206 46.0446 285.206 45.3224C285.206 44.5782 285.073 43.953 284.807 43.4454C284.54 42.9379 284.174 42.5376 283.712 42.2439C283.248 41.9502 282.698 41.7418 282.062 41.618C281.424 41.4942 280.735 41.4316 279.994 41.4316H275.755V49.1465ZM271.412 37.7451H280.515C282.206 37.7451 283.625 37.9384 284.772 38.3256C285.918 38.7121 286.845 39.2465 287.552 39.9302C288.257 40.6125 288.768 41.4144 289.08 42.3367C289.392 43.2577 289.549 44.2536 289.549 45.3231C289.549 46.5982 289.335 47.7069 288.906 48.6513C288.478 49.5956 287.858 50.3748 287.048 50.9897C286.236 51.6039 285.252 52.0647 284.094 52.3722C282.935 52.6796 281.627 52.833 280.168 52.833H275.755V62.2549H271.412V37.7451Z" fill="#000008"/>
<path fill-rule="evenodd" clip-rule="evenodd" d="M298.364 51.5702H306.543L305.197 47.6787C304.667 46.1546 304.241 44.9139 303.919 43.9585C303.597 43.0025 303.31 42.1607 303.057 41.4323H301.987C301.849 41.8188 301.711 42.2061 301.573 42.5926C301.435 42.9798 301.279 43.4124 301.107 43.8897C300.934 44.3678 300.745 44.9139 300.538 45.5287C300.331 46.1422 300.078 46.8596 299.779 47.6787L298.364 51.5702ZM290.529 61.0602L299.33 37.7451H305.852L314.549 61.0602V62.2549H310.27L307.785 55.2567H297.052L294.567 62.2549H290.529V61.0602Z" fill="#000008"/>
<path fill-rule="evenodd" clip-rule="evenodd" d="M340.529 55.7746C340.14 56.7316 339.629 57.632 339 58.4768C338.368 59.3215 337.606 60.0616 336.712 60.6935C335.819 61.3255 334.781 61.8253 333.6 62.193C332.42 62.5606 331.107 62.7451 329.663 62.7451C327.829 62.7451 326.161 62.4257 324.66 61.7875C323.158 61.1507 321.877 60.2674 320.815 59.1404C319.754 58.0121 318.934 56.6689 318.356 55.1082C317.778 53.5482 317.49 51.8567 317.49 50.0337C317.49 48.2121 317.778 46.5206 318.356 44.9599C318.934 43.3999 319.758 42.0499 320.832 40.9105C321.905 39.7725 323.193 38.8776 324.694 38.229C326.196 37.5792 327.874 37.2549 329.732 37.2549C332.436 37.2549 334.701 37.8821 336.523 39.1343C338.346 40.3866 339.636 42.0499 340.392 44.1228L336.025 44.9764C335.429 43.7242 334.597 42.7383 333.532 42.021C332.465 41.3036 331.176 40.9449 329.663 40.9449C328.448 40.9449 327.365 41.1776 326.413 41.643C325.462 42.1084 324.66 42.7493 324.006 43.5665C323.353 44.383 322.854 45.3475 322.51 46.46C322.167 47.5719 321.995 48.7629 321.995 50.0337C321.995 51.3273 322.172 52.5245 322.528 53.6253C322.883 54.7268 323.399 55.6789 324.075 56.4851C324.751 57.2906 325.571 57.9198 326.534 58.3735C327.496 58.8279 328.597 59.0551 329.835 59.0551C331.44 59.0551 332.763 58.6675 333.807 57.893C334.85 57.1185 335.658 56.1732 336.231 55.0566L340.529 55.7746Z" fill="#000008"/>
<path fill-rule="evenodd" clip-rule="evenodd" d="M345.843 37.7451H361.779V41.4997H350.059V47.9174H360.957V51.6039H350.059V58.4996H362.019V62.2549H345.843V37.7451Z" fill="#000008"/>
</svg>
