<svg width="300" height="100" viewBox="0 0 300 100" fill="none" xmlns="http://www.w3.org/2000/svg">
<path d="M218.421 32.2105H211.842V23H197.396L190.753 32.2105H178.947L175 36.1579V32.2105H165.789V23H136.842V32.2105H96.1184L89.4737 23H75V54.5789L93.4211 73H111.842V67.7368L117.105 73H152.632V67.7368L157.895 73H175V67.7368L180.263 73H213.158L225 61.1579V38.7895L218.421 32.2105ZM97.3684 45.3684H88.1579V48H97.3684V58.5263H82.8947L77.6316 53.2632V25.6316H88.1579V34.8421H97.3684V45.3684ZM136.842 58.5263H105.263L100 53.2632V34.8421H110.526V48H113.158V34.8421H123.684V48H126.316V34.8421H136.842V58.5263ZM150 58.5263H139.474V34.8421H150V58.5263ZM150 32.2105H139.474V25.6316H150V32.2105ZM172.368 45.3684H163.158V48H172.368V58.5263H157.895L152.632 53.2632V25.6316H163.158V34.8421H172.368V45.3684ZM196.053 45.3684H185.526V48H196.053V58.5263H180.263L175 53.2632V40.1053L180.263 34.8421H196.053V45.3684ZM222.368 58.5263H211.842V45.3684H209.211V58.5263H198.684V25.6316H209.211V34.8421H217.105L222.368 40.1053V58.5263Z" fill="#000008"/>
</svg>
