<svg width="300" height="100" viewBox="0 0 300 100" fill="none" xmlns="http://www.w3.org/2000/svg">
<path fill-rule="evenodd" clip-rule="evenodd" d="M230.07 55.6998C229.563 55.3324 229.16 55.2799 228.828 55.9797C223.124 68.314 213.519 62.1556 214.481 62.698C216.616 61.7182 222.215 57.2394 221.375 51.0284C220.867 47.2319 217.613 45.5523 214.149 46.1646C208.113 47.2144 205.909 53.7228 207.028 59.4788C207.221 60.4761 207.571 61.2809 207.938 62.0857C201.132 67.6318 198.421 57.1344 198.105 55.8747C198.088 55.8047 203.372 51.4133 204.841 40.9335C206.381 29.9637 202.882 27.9517 199.295 28.0217C192.665 28.1442 190.88 41.9832 193.277 53.5128C193.084 53.5653 192.139 54.0902 190.635 54.1426C189.55 50.731 184.914 47.7393 183.707 48.894C180.68 51.7808 184.441 57.4143 187.101 57.8517C185.509 67.6668 175.536 65.2349 177.391 52.9354C180.627 46.917 183.112 37.9417 182.657 32.5356C182.499 30.6286 181.082 28.0567 177.881 28.1792C171.722 28.4241 171.057 42.2631 171.775 52.0957C171.74 51.8507 171.39 53.2854 168.87 54.0027C168.275 50.696 162.939 47.3544 161.68 48.964C159.335 51.9557 163.412 57.2919 165.336 57.6593C163.744 67.4743 153.772 65.0424 155.626 52.743C158.881 46.7245 161.347 37.7668 160.91 32.3606C160.753 30.4536 159.335 27.8817 156.133 28.0042C149.975 28.2492 149.31 42.0882 150.028 51.9207C149.993 51.6758 149.643 53.1629 147.018 53.8627C146.931 49.5588 141.577 47.5993 140.283 48.964C137.991 51.4133 140.807 56.4346 143.414 57.6593C141.822 67.4743 131.85 65.0424 133.704 52.743C136.941 46.7245 139.425 37.7493 138.971 32.3431C138.831 30.4536 137.413 27.8817 134.211 28.0042C128.053 28.2492 127.563 42.788 128.281 52.6205C126.251 61.3158 119.445 72.1632 120.337 50.4161C120.425 48.894 120.513 48.3166 119.76 47.7393C119.183 47.3019 117.888 47.5118 117.188 47.5293C116.331 47.5643 116.104 48.0717 115.929 48.824C115.491 50.7835 115.404 52.6905 115.334 55.2974C115.299 56.522 115.194 57.0819 114.721 58.744C114.249 60.4061 111.59 63.4328 110.12 62.9254C108.091 62.2256 108.755 56.5046 109.14 52.568C109.455 49.4538 108.441 48.0717 105.851 47.5643C104.329 47.2494 103.402 47.3019 101.827 46.7945C100.323 46.3221 99.9901 43.4878 96.8059 44.4326C95.0564 44.9575 96.1761 48.649 95.7562 51.3958C93.6917 64.885 89.4053 65.2524 87.4108 58.709C96.3685 36.7345 89.9826 28.0742 86.256 28.0742C82.372 28.0742 77.9282 30.751 79.8002 47.8967C78.8904 47.6343 78.6105 47.4943 77.5957 47.4943C71.9447 47.4768 68.0781 52.0607 68.0781 57.7118C68.0781 63.3628 71.9447 67.9467 77.6132 67.9467C80.9549 67.9467 83.2993 66.4246 85.0838 64.0802C86.2386 65.7422 87.6557 67.9817 90.245 67.8767C97.9431 67.5793 100.183 51.7808 100.445 50.8885C101.267 51.011 102.055 51.2559 102.807 51.3784C104.067 51.5708 104.172 52.0782 104.137 53.3378C103.804 64.0802 105.781 67.8417 110.278 67.8417C112.779 67.8417 115.019 65.3748 116.559 63.6253C117.713 66.0047 119.533 67.7717 122 67.8417C127.948 67.9817 130.24 58.499 130.03 59.7412C129.873 60.721 131.955 67.7717 138.096 67.8067C145.689 67.8417 147.106 59.4963 147.263 58.0967C147.281 57.8167 147.298 57.8517 147.263 58.0967C147.263 58.1142 147.263 58.1492 147.263 58.1841C149.678 57.7292 150.92 56.4521 150.92 56.4521C150.92 56.4521 152.862 67.9467 160.018 67.8242C167.453 67.6842 168.87 60.1436 169.045 58.674C169.063 58.3241 169.08 58.3591 169.045 58.674C169.045 58.6915 169.045 58.709 169.045 58.709C171.915 57.6593 172.667 56.627 172.667 56.627C172.667 56.627 174.207 67.8942 181.765 67.9992C188.501 68.0868 191.002 61.1759 191.02 58.2891C192.157 58.3066 194.257 57.6068 194.204 57.5718C194.204 57.5718 196.671 67.4218 203.564 67.9292C206.801 68.174 209.233 66.1096 210.615 65.1649C213.869 67.8067 224.699 71.166 231.54 59.5663C232.519 57.9217 230.437 55.9447 230.07 55.6998ZM77.3333 64.1152C74.0266 64.1152 71.9097 61.0534 71.9097 57.7642C71.9097 54.4751 73.8517 51.4133 77.1584 51.4133C78.6455 51.4133 79.4678 51.5708 80.64 52.5856C80.8499 53.4078 81.4448 55.3149 81.7422 56.1896C82.1271 57.3444 82.5995 58.3416 83.0544 59.4088C82.372 62.1731 80.2026 64.1152 77.3333 64.1152ZM85.3813 52.673C85.2413 52.4456 85.2763 52.5856 85.1188 52.3756C84.524 50.731 83.3518 47.0569 83.2118 42.8755C83.0544 38.1517 83.8417 32.6056 86.1686 32.6056C87.7432 32.6056 89.4228 43.8378 85.3813 52.673ZM131.937 47.7568C131.57 44.9575 131.552 32.4481 134.544 32.798C136.206 33.4628 133.494 45.2549 131.937 47.7568ZM153.859 47.7568C153.492 44.9575 153.474 32.4481 156.466 32.798C158.128 33.4628 155.416 45.2549 153.859 47.7568ZM175.606 47.9317C175.239 45.1324 175.221 32.623 178.213 32.973C179.875 33.6203 177.163 45.4298 175.606 47.9317ZM199.61 32.0457C202.357 31.7658 202.235 43.7503 196.741 51.3084C196.023 48.579 194.939 32.9905 199.61 32.0457ZM211.157 57.8517C210.283 53.3904 212.557 50.4686 214.901 50.1536C215.724 50.0312 216.913 50.556 217.141 51.5533C217.526 53.4253 217.088 56.2071 211.822 59.7238C211.84 59.7412 211.35 58.8315 211.157 57.8517ZM118.098 44.1002C119.97 44.1002 121.492 42.578 121.492 40.706C121.492 38.834 119.97 37.3119 118.098 37.3119C116.226 37.3119 114.704 38.834 114.704 40.706C114.704 42.578 116.226 44.1002 118.098 44.1002Z" fill="#444444"/>
</svg>
