<svg width="300" height="100" viewBox="0 0 300 100" fill="none" xmlns="http://www.w3.org/2000/svg">
<path d="M92.547 26H83.7224C83.7372 29.5359 82.9195 33.0257 81.3356 36.187C79.7517 39.3483 77.4459 42.0925 74.6049 44.1975L71.1126 46.8111L84.6311 65.264H95.7689L83.3168 48.2831C86.2565 45.3668 88.5866 41.8948 90.1712 38.0691C91.7559 34.2435 92.5635 30.1408 92.547 26Z" fill="#000008"/>
<path d="M61 65.264H70.0349V26H61V65.264Z" fill="#000008"/>
<path d="M98.3938 65.2485H106.903V26.007H98.3938V65.2485Z" fill="#000008"/>
<path d="M181.534 37.3783C178.29 37.3783 175.218 38.3847 173.168 41.1335V38.1068H165.072V65.2491H173.266V50.9795C173.266 46.8488 176.029 44.8285 179.364 44.8285C182.939 44.8285 184.989 46.9615 184.989 50.9194V65.2491H193.108V47.9754C193.108 41.6592 188.083 37.3633 181.534 37.3633V37.3783Z" fill="#000008"/>
<path d="M125.221 58.6623C123.319 58.7107 121.476 58.0024 120.096 56.6928C118.716 55.3832 117.912 53.5794 117.861 51.6777C117.965 49.7951 118.786 48.0239 120.156 46.728C121.525 45.4321 123.339 44.71 125.225 44.71C127.11 44.71 128.924 45.4321 130.294 46.728C131.663 48.0239 132.484 49.7951 132.589 51.6777C132.538 53.5808 131.733 55.3857 130.351 56.6955C128.969 58.0053 127.124 58.7127 125.221 58.6623ZM132.611 38.1065V39.8414C130.758 38.5788 128.634 37.769 126.411 37.4772C124.187 37.1854 121.927 37.4198 119.81 38.1615C117.694 38.9031 115.782 40.1313 114.227 41.7472C112.672 43.363 111.518 45.3214 110.859 47.4646C110.199 49.6078 110.052 51.876 110.429 54.0865C110.806 56.2969 111.697 58.388 113.03 60.1912C114.363 61.9945 116.101 63.4595 118.103 64.4684C120.106 65.4773 122.318 66.0019 124.56 65.9998C127.43 66.0168 130.237 65.1631 132.611 63.5515V65.2864H140.745V38.1065H132.611Z" fill="#000008"/>
<path d="M153.318 41.6444V38.107H144.997V65.2494H153.333V52.5794C153.333 48.2985 157.967 46.0004 161.189 46.0004H161.279V38.107C157.982 38.107 154.948 39.519 153.318 41.6444Z" fill="#000008"/>
<path d="M210.967 58.6623C209.065 58.7107 207.221 58.0024 205.841 56.6928C204.461 55.3832 203.658 53.5794 203.606 51.6777C203.711 49.7951 204.532 48.0239 205.901 46.728C207.271 45.4321 209.085 44.71 210.97 44.71C212.856 44.71 214.67 45.4321 216.039 46.728C217.409 48.0239 218.23 49.7951 218.334 51.6777C218.283 53.5808 217.478 55.3857 216.097 56.6955C214.715 58.0053 212.87 58.7127 210.967 58.6623ZM218.364 38.1065V39.8414C216.212 38.3749 213.7 37.5232 211.1 37.3778C208.499 37.2324 205.908 37.7989 203.606 39.0163C201.303 40.2337 199.376 42.056 198.032 44.2869C196.688 46.5179 195.978 49.0731 195.978 51.6777C195.978 54.2822 196.688 56.8374 198.032 59.0684C199.376 61.2994 201.303 63.1216 203.606 64.339C205.908 65.5564 208.499 66.1229 211.1 65.9775C213.7 65.8322 216.212 64.9804 218.364 63.5139V65.2488H226.49V38.1065H218.364Z" fill="#000008"/>
<path d="M235.121 55.6211C234.11 55.6196 233.122 55.9179 232.281 56.4781C231.441 57.0384 230.785 57.8355 230.397 58.7685C230.009 59.7016 229.907 60.7287 230.103 61.7198C230.3 62.711 230.785 63.6217 231.499 64.3367C232.213 65.0517 233.123 65.5388 234.114 65.7365C235.105 65.9341 236.132 65.8334 237.066 65.4471C237.999 65.0608 238.798 64.4062 239.359 63.5662C239.921 62.7262 240.22 61.7385 240.22 60.7281C240.221 60.0578 240.09 59.3939 239.834 58.7743C239.578 58.1548 239.203 57.5917 238.729 57.1174C238.256 56.643 237.693 56.2667 237.074 56.01C236.455 55.7533 235.791 55.6211 235.121 55.6211Z" fill="#000008"/>
</svg>
