<svg width="300" height="100" viewBox="0 0 300 100" fill="none" xmlns="http://www.w3.org/2000/svg">
<path d="M155.944 35.7576C144.697 35.7576 136.189 44.4939 136.189 55.3164C136.189 66.7256 145.056 74.8751 155.944 74.8751C166.831 74.8751 175.665 66.7256 175.665 55.3164C175.665 44.4939 167.19 35.7576 155.944 35.7576ZM155.944 46.0912C160.801 46.0586 164.778 50.1985 164.778 55.3164C164.778 60.4016 160.801 64.5416 155.944 64.5416C151.087 64.5416 147.11 60.4016 147.11 55.3164C147.11 50.1985 151.087 46.0912 155.944 46.0912Z" fill="#000008"/>
<path d="M212.218 68.028C212.218 71.8094 209.153 74.8736 205.372 74.8736C201.591 74.8736 198.527 71.8094 198.527 68.028C198.527 64.2467 201.591 61.1825 205.372 61.1825C209.153 61.1825 212.218 64.2467 212.218 68.028Z" fill="#000008"/>
<path d="M192.292 73.5708H181.534V25H192.292V73.5708Z" fill="#000008"/>
<path fill-rule="evenodd" clip-rule="evenodd" d="M87 73.5708L106.559 25H116.664L135.897 73.5708H122.206L119.924 66.7253H102.973L100.691 73.5708H87ZM116.664 56.6199H106.559L111.611 40.321L116.664 56.6199Z" fill="#000008"/>
</svg>
