<svg width="300" height="100" viewBox="0 0 300 100" fill="none" xmlns="http://www.w3.org/2000/svg">
<path d="M183.026 43.2072C179.309 39.9152 174.823 38.3063 169.637 38.3063C164.521 38.3063 160.035 39.9179 156.316 43.2072C152.599 46.4278 150.711 50.9107 150.711 56.6532C150.711 62.3957 152.599 66.8757 156.316 70.1681C160.032 73.3885 164.521 75.0001 169.637 75.0001C174.823 75.0001 179.309 73.3885 183.026 70.1681C186.814 66.8757 188.702 62.3957 188.702 56.6532C188.702 50.9107 186.811 46.4278 183.026 43.2072ZM162.63 64.0047C160.67 62.1152 159.683 59.6621 159.683 56.6532C159.683 53.6417 160.662 51.1912 162.63 49.3705C164.59 47.4811 166.907 46.5707 169.634 46.5707C172.363 46.5707 174.749 47.4811 176.712 49.3705C178.741 51.1912 179.727 53.6417 179.727 56.6532C179.727 59.6647 178.749 62.1152 176.712 64.0047C174.752 65.8253 172.366 66.7357 169.634 66.7357C166.907 66.7357 164.595 65.8253 162.63 64.0047Z" fill="#21262E"/>
<path d="M201.957 74.0171V25.9652H193.125V74.0171H201.957Z" fill="#21262E"/>
<path d="M230.465 39.2844V58.457C230.465 63.0775 227.965 66.1394 223.207 66.1394C218.369 66.1394 215.935 63.0801 215.935 58.457V39.2844H207.087V59.9283C207.087 67.9254 212.134 74.9966 223.207 74.9966H223.275C234.279 74.9966 239.318 67.7694 239.318 59.9283V39.2844H230.465Z" fill="#21262E"/>
<path d="M141.308 39.2844L132.476 62.8128L123.644 39.2844H114.252L128.345 74.0174H136.619L150.709 39.2844H141.308Z" fill="#21262E"/>
<path d="M114.297 55.6714C114.297 50.6302 112.686 46.4993 109.531 43.2072C106.375 39.9152 102.315 38.3063 97.3366 38.3063C92.221 38.3063 87.8726 40.0581 84.2966 43.4877C80.789 46.92 79.0406 51.26 79.0406 56.6532C79.0406 62.0464 80.7918 66.4577 84.2278 69.8873C87.735 73.3197 91.9406 75.0001 96.9162 75.0001C104.561 75.0001 109.957 71.6393 113.244 64.8462L106.658 61.0646C104.489 65.3357 101.331 67.4369 97.0562 67.4369C91.8006 67.4369 88.0842 64.0761 87.5234 58.7544H114.295V55.6714H114.297ZM97.051 45.0279C102.027 45.0279 105.325 47.8277 106.163 52.3106H87.5182C88.8538 48.1797 92.4934 45.0279 97.051 45.0279Z" fill="#21262E"/>
<path d="M79.0415 74.018L67.1915 53.2918C74.6877 50.5608 78.4041 45.8001 78.4041 38.8667C78.412 30.3932 71.6776 25 60.9544 25H40V74.018H49.2525V54.1307H57.1058L68.4585 74.018H79.0415ZM60.9544 33.1216C66.4218 33.1216 69.1568 35.2916 69.1568 39.5627C69.1568 43.8339 66.4192 46.0038 60.9544 46.0038H49.2525V33.1216H60.9544Z" fill="#21262E"/>
<path d="M254.29 74.9969C248.606 74.9969 243.995 70.3897 243.995 64.7029V29.9012H252.827V39.2983H260.4V46.4407H252.827V64.1366C252.827 65.8037 254.179 67.1533 255.851 67.1533H260.4V74.9969H254.29Z" fill="#21262E"/>
</svg>
